<svg xmlns="http://www.w3.org/2000/svg" viewBox="0 0 720 180" role="img" aria-labelledby="title desc">
<title id="title">Actions On Cyber logo</title>
<desc id="desc">A shield and radar mark with the words Actions On Cyber.</desc>
<defs>
  <style>
    .navy{fill:#0f172a}.teal{fill:#0f766e}.mint{fill:#5eead4}.olive{fill:#556b2f}.line{fill:none;stroke:#5eead4;stroke-width:8;stroke-linecap:round;stroke-linejoin:round}.text{font-family:Arial,Helvetica,sans-serif;font-weight:900;letter-spacing:-1px}.sub{font-family:Arial,Helvetica,sans-serif;font-weight:800;letter-spacing:3.5px}
  </style>
</defs>
<g transform="translate(22 18)">
  <path class="navy" d="M70 0 128 22v50c0 38-22 73-58 88-36-15-58-50-58-88V22L70 0Z"/>
  <path d="M70 15 112 31v42c0 29-16 56-42 69-26-13-42-40-42-69V31l42-16Z" fill="#fff" opacity=".95"/>
  <circle cx="70" cy="63" r="22" fill="none" stroke="#0f766e" stroke-width="6"/>
  <path class="line" d="M70 63 93 42M70 63h32M70 63v-34"/>
  <circle class="teal" cx="93" cy="42" r="7"/>
  <circle class="mint" cx="102" cy="63" r="6"/>
  <circle class="olive" cx="70" cy="29" r="6"/>
  <path class="olive" d="M43 96h54l-11 13H54L43 96Zm11 21h32l-16 18-16-18Z"/>
</g>
<g transform="translate(175 42)">
  <text x="0" y="43" class="text navy" font-size="50">ACTIONS</text>
  <text x="0" y="96" class="text olive" font-size="50">ON</text>
  <text x="82" y="96" class="text teal" font-size="50">CYBER</text>
  <text x="2" y="126" class="sub navy" font-size="13">NO JARGON. NO PANIC. JUST ACTIONS ON.</text>
</g>
</svg>